<svg width="203" height="145" viewBox="0 0 203 145" fill="none" xmlns="http://www.w3.org/2000/svg">
<path fill-rule="evenodd" clip-rule="evenodd" d="M197.938 31.9087C197.938 46.3974 189.331 58.1445 178.713 58.1445C168.097 58.1445 159.489 46.3974 159.489 31.9087C159.489 17.42 168.097 5.67285 178.713 5.67285C189.331 5.67285 197.938 17.42 197.938 31.9087Z" fill="#CD844B"/>
<path fill-rule="evenodd" clip-rule="evenodd" d="M196.514 31.9087C196.514 46.3974 187.907 58.1445 177.29 58.1445C166.673 58.1445 158.065 46.3974 158.065 31.9087C158.065 17.42 166.673 5.67285 177.29 5.67285C187.907 5.67285 196.514 17.42 196.514 31.9087Z" fill="#C47F4B"/>
<path fill-rule="evenodd" clip-rule="evenodd" d="M192.242 32.6179C192.242 42.018 186.823 49.6357 180.138 49.6357C173.453 49.6357 168.034 42.018 168.034 32.6179C168.034 23.2179 173.453 15.6001 180.138 15.6001C186.823 15.6001 192.242 23.2179 192.242 32.6179Z" fill="#58351A"/>
<mask id="mask0" mask-type="alpha" maskUnits="userSpaceOnUse" x="10" y="29" width="192" height="110">
<path fill-rule="evenodd" clip-rule="evenodd" d="M64.6255 29.8006C64.5746 29.8002 64.5479 29.7999 64.497 29.7984C62.9041 29.7497 25.2896 28.832 21.9064 50.6988C19.0613 69.0785 12.8171 116.969 10.6926 133.372C10.3054 136.362 12.6318 138.979 15.6464 138.979C19.6081 138.979 26.334 138.979 37.7527 138.979H158.479H196.138C199.284 138.979 201.648 136.108 201.045 133.02L186.715 59.7071L183.744 49.259C183.621 48.8237 183.559 48.3761 183.492 47.9285C183.06 45.0119 179.767 33.4933 154.727 30.3623L64.6255 29.8006Z" fill="#CD844B"/>
</mask>
<g mask="url(#mask0)">
<path fill-rule="evenodd" clip-rule="evenodd" d="M64.6255 29.8006C64.5746 29.8002 64.5479 29.7999 64.497 29.7984C62.9041 29.7497 25.2896 28.832 21.9064 50.6988C19.0613 69.0785 12.8171 116.969 10.6926 133.372C10.3054 136.362 12.6318 138.979 15.6464 138.979C19.6081 138.979 26.334 138.979 37.7527 138.979H158.479H196.138C199.284 138.979 201.648 136.108 201.045 133.02L186.715 59.7071L183.744 49.259C183.621 48.8237 183.559 48.3761 183.492 47.9285C183.06 45.0119 179.767 33.4933 154.727 30.3623L64.6255 29.8006Z" fill="#C47F4B"/>
<path fill-rule="evenodd" clip-rule="evenodd" d="M77.4109 29.8004C77.3803 29.8002 77.3767 29.8004 77.3462 29.7994C76.3742 29.7673 38.1349 28.6426 34.7223 50.6988C31.732 70.0166 24.9868 121.935 23.2164 135.63C22.9845 137.423 24.3823 138.979 26.191 138.979C29.6417 138.979 36.5876 138.979 50.5686 138.979H171.295H211.382C213.27 138.979 214.689 137.256 214.327 135.404L199.531 59.7071L196.486 48.9966C196.411 48.7355 196.374 48.4698 196.344 48.2C196.078 45.8202 193.45 33.6018 167.543 30.3623L77.4109 29.8004Z" fill="#CD844B"/>
<path fill-rule="evenodd" clip-rule="evenodd" d="M86.9826 35.472C86.9826 35.472 54.1823 34.1053 51.2891 55.285C48.3944 76.4648 41.2964 138.979 41.2964 138.979C41.2964 138.979 41.2964 138.979 64.553 138.979H165.606H202.21L189.24 63.8253L186.597 53.2982C186.597 53.2982 186.524 39.4124 162.465 36.005L86.9826 35.472Z" fill="#D28F5B"/>
</g>
<path fill-rule="evenodd" clip-rule="evenodd" d="M156.641 125.991C156.641 147.015 144.507 142.91 130.352 142.91C116.197 142.91 105.377 147.015 105.377 125.991C105.377 104.967 116.854 87.9258 131.009 87.9258C145.164 87.9258 156.641 104.967 156.641 125.991Z" fill="#EFED8F"/>
<path fill-rule="evenodd" clip-rule="evenodd" d="M133.359 142.095C133.359 142.724 133.869 143.234 134.498 143.234C135.127 143.234 135.637 142.724 135.637 142.095V100.41C135.637 99.781 135.127 99.271 134.498 99.271C133.869 99.271 133.359 99.781 133.359 100.41V142.095Z" fill="#55371B"/>
<path fill-rule="evenodd" clip-rule="evenodd" d="M132.789 144.083C132.789 144.397 133.044 144.652 133.359 144.652C133.673 144.652 133.928 144.397 133.928 144.083V101.259C133.928 100.944 133.673 100.689 133.359 100.689C133.044 100.689 132.789 100.944 132.789 101.259V144.083Z" fill="#2F1E0F"/>
<mask id="mask1" mask-type="alpha" maskUnits="userSpaceOnUse" x="119" y="93" width="28" height="22">
<path fill-rule="evenodd" clip-rule="evenodd" d="M133.447 114.856C133.447 114.856 139.608 115.648 145.236 105.562C150.297 96.4929 140.527 94.0608 138.505 93.6624C138.265 93.6152 138.026 93.5986 137.781 93.5986H130.227C109.12 95.7973 125.657 110.48 127.804 112.305C127.951 112.43 128.093 112.56 128.24 112.684C128.805 113.16 130.496 114.381 133.447 114.856Z" fill="#55371B"/>
</mask>
<g mask="url(#mask1)">
<path fill-rule="evenodd" clip-rule="evenodd" d="M134.207 114.856C134.207 114.856 141.341 115.648 147.857 105.562C153.811 96.3486 142.041 93.9851 139.958 93.6449C139.75 93.6109 139.545 93.5986 139.333 93.5986H130.479C105.92 95.808 125.373 110.623 127.708 112.331C127.86 112.442 128 112.554 128.152 112.666C128.779 113.127 130.744 114.374 134.207 114.856Z" fill="#2F1E0F"/>
<path fill-rule="evenodd" clip-rule="evenodd" d="M137.055 114.856C137.055 114.856 144.188 115.648 150.704 105.562C156.658 96.3486 144.888 93.9851 142.806 93.6449C142.597 93.6109 142.392 93.5986 142.181 93.5986H133.326C108.768 95.808 128.221 110.623 130.556 112.331C130.708 112.442 130.848 112.554 131 112.666C131.627 113.127 133.592 114.374 137.055 114.856Z" fill="#55371B"/>
</g>
<path fill-rule="evenodd" clip-rule="evenodd" d="M99.6807 81.5448C99.6807 85.8532 96.174 89.3437 91.8478 89.3437C87.5233 89.3437 84.0166 85.8532 84.0166 81.5448C84.0166 77.2364 87.5233 73.7441 91.8478 73.7441C96.174 73.7441 99.6807 77.2364 99.6807 81.5448Z" fill="#55371B"/>
<path fill-rule="evenodd" clip-rule="evenodd" d="M96.8326 77.2895C96.8326 78.4645 95.8762 79.4165 94.6963 79.4165C93.5169 79.4165 92.5605 78.4645 92.5605 77.2895C92.5605 76.1145 93.5169 75.1621 94.6963 75.1621C95.8762 75.1621 96.8326 76.1145 96.8326 77.2895Z" fill="#7C5027"/>
<path fill-rule="evenodd" clip-rule="evenodd" d="M96.8327 77.2892C96.8327 77.6809 96.5139 77.9982 96.1206 77.9982C95.7275 77.9982 95.4087 77.6809 95.4087 77.2892C95.4087 76.8976 95.7275 76.5801 96.1206 76.5801C96.5139 76.5801 96.8327 76.8976 96.8327 77.2892Z" fill="white"/>
<path fill-rule="evenodd" clip-rule="evenodd" d="M96.8327 77.2892C96.8327 77.6809 96.5139 77.9982 96.1206 77.9982C95.7275 77.9982 95.4087 77.6809 95.4087 77.2892C95.4087 76.8976 95.7275 76.5801 96.1206 76.5801C96.5139 76.5801 96.8327 76.8976 96.8327 77.2892Z" fill="white"/>
<path fill-rule="evenodd" clip-rule="evenodd" d="M96.8327 77.2892C96.8327 77.6809 96.5139 77.9982 96.1206 77.9982C95.7275 77.9982 95.4087 77.6809 95.4087 77.2892C95.4087 76.8976 95.7275 76.5801 96.1206 76.5801C96.5139 76.5801 96.8327 76.8976 96.8327 77.2892Z" fill="white"/>
<path fill-rule="evenodd" clip-rule="evenodd" d="M162.574 81.6627C162.574 85.253 159.652 88.1618 156.047 88.1618C152.443 88.1618 149.521 85.253 149.521 81.6627C149.521 78.0723 152.443 75.1621 156.047 75.1621C159.652 75.1621 162.574 78.0723 162.574 81.6627Z" fill="#55371B"/>
<path fill-rule="evenodd" clip-rule="evenodd" d="M160.201 78.3529C160.201 79.3321 159.404 80.1254 158.421 80.1254C157.438 80.1254 156.641 79.3321 156.641 78.3529C156.641 77.3738 157.438 76.5801 158.421 76.5801C159.404 76.5801 160.201 77.3738 160.201 78.3529Z" fill="#7C5027"/>
<path fill-rule="evenodd" clip-rule="evenodd" d="M160.201 77.9986C160.201 78.3903 159.883 78.7076 159.489 78.7076C159.096 78.7076 158.777 78.3903 158.777 77.9986C158.777 77.607 159.096 77.2896 159.489 77.2896C159.883 77.2896 160.201 77.607 160.201 77.9986Z" fill="white"/>
<path fill-rule="evenodd" clip-rule="evenodd" d="M160.201 77.9986C160.201 78.3903 159.883 78.7076 159.489 78.7076C159.096 78.7076 158.777 78.3903 158.777 77.9986C158.777 77.607 159.096 77.2896 159.489 77.2896C159.883 77.2896 160.201 77.607 160.201 77.9986Z" fill="white"/>
<path fill-rule="evenodd" clip-rule="evenodd" d="M160.201 77.9986C160.201 78.3903 159.883 78.7076 159.489 78.7076C159.096 78.7076 158.777 78.3903 158.777 77.9986C158.777 77.607 159.096 77.2896 159.489 77.2896C159.883 77.2896 160.201 77.607 160.201 77.9986Z" fill="white"/>
<path fill-rule="evenodd" clip-rule="evenodd" d="M52.6884 31.1983C52.6884 48.4288 40.8942 62.3988 26.3451 62.3988C11.7942 62.3988 0 48.4288 0 31.1983C0 13.9679 11.7942 0 26.3451 0C40.8942 0 52.6884 13.9679 52.6884 31.1983Z" fill="#C47F4B"/>
<path fill-rule="evenodd" clip-rule="evenodd" d="M55.5365 31.1983C55.5365 48.4288 43.7423 62.3988 29.1932 62.3988C14.6424 62.3988 2.84814 48.4288 2.84814 31.1983C2.84814 13.9679 14.6424 0 29.1932 0C43.7423 0 55.5365 13.9679 55.5365 31.1983Z" fill="#CD844B"/>
<path fill-rule="evenodd" clip-rule="evenodd" d="M44.1443 31.9084C44.1443 43.2668 36.812 52.4716 27.7682 52.4716C18.7244 52.4716 11.3921 43.2668 11.3921 31.9084C11.3921 20.55 18.7244 11.3452 27.7682 11.3452C36.812 11.3452 44.1443 20.55 44.1443 31.9084Z" fill="#58351A"/>
</svg>
