<svg width="308" height="60" viewBox="0 0 308 60" fill="none" xmlns="http://www.w3.org/2000/svg">
<path d="M32.7188 36.3125C32.7188 40.4375 31.2292 43.6875 28.25 46.0625C25.2917 48.4375 21.1667 49.625 15.875 49.625C11 49.625 6.6875 48.7083 2.9375 46.875V37.875C6.02083 39.25 8.625 40.2188 10.75 40.7812C12.8958 41.3438 14.8542 41.625 16.625 41.625C18.75 41.625 20.375 41.2188 21.5 40.4062C22.6458 39.5938 23.2188 38.3854 23.2188 36.7812C23.2188 35.8854 22.9688 35.0938 22.4688 34.4062C21.9688 33.6979 21.2292 33.0208 20.25 32.375C19.2917 31.7292 17.3229 30.6979 14.3438 29.2812C11.5521 27.9688 9.45833 26.7083 8.0625 25.5C6.66667 24.2917 5.55208 22.8854 4.71875 21.2812C3.88542 19.6771 3.46875 17.8021 3.46875 15.6562C3.46875 11.6146 4.83333 8.4375 7.5625 6.125C10.3125 3.8125 14.1042 2.65625 18.9375 2.65625C21.3125 2.65625 23.5729 2.9375 25.7188 3.5C27.8854 4.0625 30.1458 4.85417 32.5 5.875L29.375 13.4062C26.9375 12.4062 24.9167 11.7083 23.3125 11.3125C21.7292 10.9167 20.1667 10.7188 18.625 10.7188C16.7917 10.7188 15.3854 11.1458 14.4062 12C13.4271 12.8542 12.9375 13.9688 12.9375 15.3438C12.9375 16.1979 13.1354 16.9479 13.5312 17.5938C13.9271 18.2188 14.5521 18.8333 15.4062 19.4375C16.2812 20.0208 18.3333 21.0833 21.5625 22.625C25.8333 24.6667 28.7604 26.7188 30.3438 28.7812C31.9271 30.8229 32.7188 33.3333 32.7188 36.3125ZM62.4375 49L60.5938 44.25H60.3438C58.7396 46.2708 57.0833 47.6771 55.375 48.4688C53.6875 49.2396 51.4792 49.625 48.75 49.625C45.3958 49.625 42.75 48.6667 40.8125 46.75C38.8958 44.8333 37.9375 42.1042 37.9375 38.5625C37.9375 34.8542 39.2292 32.125 41.8125 30.375C44.4167 28.6042 48.3333 27.625 53.5625 27.4375L59.625 27.25V25.7188C59.625 22.1771 57.8125 20.4062 54.1875 20.4062C51.3958 20.4062 48.1146 21.25 44.3438 22.9375L41.1875 16.5C45.2083 14.3958 49.6667 13.3438 54.5625 13.3438C59.25 13.3438 62.8438 14.3646 65.3438 16.4062C67.8438 18.4479 69.0938 21.5521 69.0938 25.7188V49H62.4375ZM59.625 32.8125L55.9375 32.9375C53.1667 33.0208 51.1042 33.5208 49.75 34.4375C48.3958 35.3542 47.7188 36.75 47.7188 38.625C47.7188 41.3125 49.2604 42.6562 52.3438 42.6562C54.5521 42.6562 56.3125 42.0208 57.625 40.75C58.9583 39.4792 59.625 37.7917 59.625 35.6875V32.8125ZM110.219 49H100.688V28.5938C100.688 26.0729 100.26 24.1875 99.4062 22.9375C98.5729 21.6667 97.25 21.0312 95.4375 21.0312C93 21.0312 91.2292 21.9271 90.125 23.7188C89.0208 25.5104 88.4688 28.4583 88.4688 32.5625V49H78.9375V14.0625H86.2188L87.5 18.5312H88.0312C88.9688 16.9271 90.3229 15.6771 92.0938 14.7812C93.8646 13.8646 95.8958 13.4062 98.1875 13.4062C103.417 13.4062 106.958 15.1146 108.812 18.5312H109.656C110.594 16.9062 111.969 15.6458 113.781 14.75C115.615 13.8542 117.677 13.4062 119.969 13.4062C123.927 13.4062 126.917 14.4271 128.938 16.4688C130.979 18.4896 132 21.7396 132 26.2188V49H122.438V28.5938C122.438 26.0729 122.01 24.1875 121.156 22.9375C120.323 21.6667 119 21.0312 117.188 21.0312C114.854 21.0312 113.104 21.8646 111.938 23.5312C110.792 25.1979 110.219 27.8438 110.219 31.4688V49ZM196.219 5.03125C196.219 1.92708 197.948 0.375 201.406 0.375C204.865 0.375 206.594 1.92708 206.594 5.03125C206.594 6.51042 206.156 7.66667 205.281 8.5C204.427 9.3125 203.135 9.71875 201.406 9.71875C197.948 9.71875 196.219 8.15625 196.219 5.03125ZM206.156 49H196.625V14.0625H206.156V49ZM240.562 38.625C240.562 42.2083 239.312 44.9375 236.812 46.8125C234.333 48.6875 230.615 49.625 225.656 49.625C223.115 49.625 220.948 49.4479 219.156 49.0938C217.365 48.7604 215.688 48.2604 214.125 47.5938V39.7188C215.896 40.5521 217.885 41.25 220.094 41.8125C222.323 42.375 224.281 42.6562 225.969 42.6562C229.427 42.6562 231.156 41.6562 231.156 39.6562C231.156 38.9062 230.927 38.3021 230.469 37.8438C230.01 37.3646 229.219 36.8333 228.094 36.25C226.969 35.6458 225.469 34.9479 223.594 34.1562C220.906 33.0312 218.927 31.9896 217.656 31.0312C216.406 30.0729 215.49 28.9792 214.906 27.75C214.344 26.5 214.062 24.9688 214.062 23.1562C214.062 20.0521 215.26 17.6562 217.656 15.9688C220.073 14.2604 223.49 13.4062 227.906 13.4062C232.115 13.4062 236.208 14.3229 240.188 16.1562L237.312 23.0312C235.562 22.2812 233.927 21.6667 232.406 21.1875C230.885 20.7083 229.333 20.4688 227.75 20.4688C224.938 20.4688 223.531 21.2292 223.531 22.75C223.531 23.6042 223.979 24.3438 224.875 24.9688C225.792 25.5938 227.781 26.5208 230.844 27.75C233.573 28.8542 235.573 29.8854 236.844 30.8438C238.115 31.8021 239.052 32.9062 239.656 34.1562C240.26 35.4062 240.562 36.8958 240.562 38.625ZM262.469 20.1875C260.448 20.1875 258.865 20.8333 257.719 22.125C256.573 23.3958 255.917 25.2083 255.75 27.5625H269.125C269.083 25.2083 268.469 23.3958 267.281 22.125C266.094 20.8333 264.49 20.1875 262.469 20.1875ZM263.812 49.625C258.188 49.625 253.792 48.0729 250.625 44.9688C247.458 41.8646 245.875 37.4688 245.875 31.7812C245.875 25.9271 247.333 21.4062 250.25 18.2188C253.188 15.0104 257.24 13.4062 262.406 13.4062C267.344 13.4062 271.188 14.8125 273.938 17.625C276.688 20.4375 278.062 24.3229 278.062 29.2812V33.9062H255.531C255.635 36.6146 256.438 38.7292 257.938 40.25C259.438 41.7708 261.542 42.5312 264.25 42.5312C266.354 42.5312 268.344 42.3125 270.219 41.875C272.094 41.4375 274.052 40.7396 276.094 39.7812V47.1562C274.427 47.9896 272.646 48.6042 270.75 49C268.854 49.4167 266.542 49.625 263.812 49.625Z" fill="black"/>
<path d="M158.719 15L168.25 15V35.4062C168.25 37.9271 168.677 39.8125 169.531 41.0625C170.365 42.3333 171.688 42.9688 173.5 42.9688C175.938 42.9688 177.708 42.0729 178.812 40.2812C179.917 38.4896 180.469 35.5417 180.469 31.4375V15H190V49.9375H182.719L181.438 45.4688H180.906C179.969 47.0729 178.615 48.3229 176.844 49.2188C175.073 50.1354 173.042 50.5938 170.75 50.5938C165.521 50.5938 161.979 48.8854 160.125 45.4688H159.281C158.344 47.0937 156.969 48.3542 155.156 49.25C153.323 50.1458 151.26 50.5937 148.969 50.5937C145.01 50.5937 142.021 49.5729 140 47.5312C137.958 45.5104 136.938 42.2604 136.938 37.7812V15H146.5V35.4062C146.5 37.9271 146.927 39.8125 147.781 41.0625C148.615 42.3333 149.938 42.9687 151.75 42.9687C154.083 42.9687 155.833 42.1354 157 40.4687C158.146 38.8021 158.719 36.1562 158.719 32.5312V15Z" fill="#7FBDFF"/>
</svg>
